<svg xmlns="http://www.w3.org/2000/svg" xmlns:xlink="http://www.w3.org/1999/xlink" viewBox="0,0,256,256" width="500px" height="500px" fill-rule="none"><g fill="none" fill-rule="none" stroke="none" stroke-width="1" stroke-linecap="butt" stroke-linejoin="miter" stroke-miterlimit="10" stroke-dasharray="" stroke-dashoffset="0" font-family="none" font-weight="none" font-size="none" text-anchor="none" style="mix-blend-mode: normal"><g transform="scale(2.56,2.56)"><path d="M15,29c0,-1.104 -0.896,-2 -2,-2c-1.104,0 -2,0.896 -2,2c0,1.104 0.896,2 2,2c1.104,0 2,-0.896 2,-2z" fill="#78a3cf" fill-rule="nonzero"></path><path d="M78,13c0,-0.552 -0.448,-1 -1,-1c-0.552,0 -1,0.448 -1,1c0,0.552 0.448,1 1,1c0.552,0 1,-0.448 1,-1z" fill="#f1b419" fill-rule="nonzero"></path><path d="M87,50c0,-20.424 -16.576,-37 -37,-37c-20.424,0 -37,16.576 -37,37c0,20.424 16.576,37 37,37c20.424,0 37,-16.576 37,-37z" fill="#fce0a2" fill-rule="nonzero"></path><path d="M87,15c0,-2.208 -1.792,-4 -4,-4c-2.208,0 -4,1.792 -4,4c0,2.208 1.792,4 4,4c2.208,0 4,-1.792 4,-4z" fill="#f1b419" fill-rule="nonzero"></path><path d="M89,24c0,-1.104 -0.896,-2 -2,-2c-1.104,0 -2,0.896 -2,2c0,1.104 0.896,2 2,2c1.104,0 2,-0.896 2,-2z" fill="#78a3cf" fill-rule="nonzero"></path><path d="M83,76c0,-1.104 -0.896,-2 -2,-2c-1.104,0 -2,0.896 -2,2c0,1.104 0.896,2 2,2c1.104,0 2,-0.896 2,-2z" fill="#fbcd59" fill-rule="nonzero"></path><path d="M19,63c0,-2.208 -1.792,-4 -4,-4c-2.208,0 -4,1.792 -4,4c0,2.208 1.792,4 4,4c2.208,0 4,-1.792 4,-4z" fill="#fbcd59" fill-rule="nonzero"></path><path d="M27,87c0,-1.104 -0.896,-2 -2,-2c-1.104,0 -2,0.896 -2,2c0,1.104 0.896,2 2,2c1.104,0 2,-0.896 2,-2z" fill="#78a3cf" fill-rule="nonzero"></path><path d="M21,53.5c0,-1.38 -1.12,-2.5 -2.5,-2.5c-1.38,0 -2.5,1.12 -2.5,2.5c0,1.38 1.12,2.5 2.5,2.5c1.38,0 2.5,-1.12 2.5,-2.5z" fill="#ffffff" fill-rule="nonzero"></path><path d="M22,67c0,-0.552 -0.448,-1 -1,-1c-0.552,0 -1,0.448 -1,1c0,0.552 0.448,1 1,1c0.552,0 1,-0.448 1,-1z" fill="#f1b419" fill-rule="nonzero"></path><path d="M81,34c0,-0.552 -0.448,-1 -1,-1c-0.552,0 -1,0.448 -1,1c0,0.552 0.448,1 1,1c0.552,0 1,-0.448 1,-1z" fill="#ffffff" fill-rule="nonzero"></path><path d="M38.611,74.384c-0.879,0 -1.832,-0.224 -2.857,-0.672c-1.025,-0.448 -1.895,-1.045 -2.607,-1.792c-0.711,-0.747 -1.067,-1.568 -1.067,-2.464c0,-0.555 0.188,-1.152 0.565,-1.792l10.863,-17.088l-10.424,-17.024c-0.419,-0.683 -0.628,-1.344 -0.628,-1.984c0,-0.896 0.336,-1.705 1.005,-2.431c0.669,-0.725 1.496,-1.291 2.48,-1.696c0.984,-0.405 1.936,-0.608 2.857,-0.608c0.712,0 1.308,0.128 1.789,0.384c0.483,0.256 0.869,0.683 1.163,1.28l8.352,14.847l8.352,-14.847c0.335,-0.597 0.743,-1.024 1.224,-1.28c0.481,-0.256 1.057,-0.384 1.727,-0.384c0.921,0 1.873,0.203 2.857,0.608c0.984,0.405 1.811,0.971 2.48,1.696c0.671,0.725 1.005,1.535 1.005,2.431c0,0.64 -0.209,1.301 -0.628,1.984l-10.423,17.024l10.864,17.088c0.376,0.64 0.565,1.237 0.565,1.792c0,0.896 -0.356,1.717 -1.068,2.464c-0.712,0.747 -1.569,1.344 -2.575,1.792c-1.005,0.448 -1.968,0.672 -2.888,0.672c-0.503,0 -0.964,-0.085 -1.383,-0.256c-0.419,-0.171 -0.732,-0.427 -0.941,-0.768l-9.168,-15.872l-9.169,15.872c-0.208,0.341 -0.523,0.597 -0.941,0.768c-0.419,0.171 -0.879,0.256 -1.381,0.256z" fill="#0948c3" fill-rule="nonzero"></path><path d="M35.472,74.355c-1.103,-0.481 -2.052,-1.131 -2.833,-1.951c-0.815,-0.856 -1.26,-1.844 -1.26,-2.948c0,-0.715 0.243,-1.435 0.668,-2.157l10.635,-16.729l-10.197,-16.651c-0.469,-0.765 -0.731,-1.552 -0.731,-2.351c0,-1.091 0.416,-2.065 1.191,-2.905c0.744,-0.805 1.657,-1.428 2.728,-1.868c1.056,-0.436 2.099,-0.661 3.125,-0.661c0.792,0 1.509,0.143 2.117,0.465c0.32,0.171 0.6,0.393 0.843,0.661l0.6,0.896l7.744,13.76l7.74,-13.761c0.384,-0.684 0.88,-1.221 1.507,-1.555c0.603,-0.321 1.297,-0.467 2.056,-0.467c1.025,0 2.068,0.225 3.124,0.661c1.071,0.44 1.984,1.063 2.728,1.868c0.776,0.84 1.191,1.815 1.191,2.905c0,0.799 -0.261,1.585 -0.731,2.351l-10.196,16.651l10.636,16.729c0.424,0.723 0.668,1.443 0.668,2.157c0,1.104 -0.445,2.092 -1.261,2.948c-0.779,0.817 -1.713,1.465 -2.797,1.948c-1.077,0.481 -2.137,0.733 -3.172,0.733c-0.584,0 -1.136,-0.099 -1.648,-0.308c-0.539,-0.22 -0.977,-0.567 -1.279,-1.059l-8.567,-14.829l-8.567,14.829c-0.3,0.493 -0.741,0.84 -1.279,1.059c-0.512,0.208 -1.063,0.308 -1.645,0.308c-0.998,0.001 -2.047,-0.253 -3.138,-0.729zM39.727,73.48c0.3,-0.123 0.488,-0.288 0.604,-0.477l9.164,-15.864c0.269,-0.467 0.945,-0.467 1.215,0l9.163,15.864c0.117,0.191 0.305,0.356 0.604,0.477c0.325,0.132 0.696,0.204 1.119,0.204c0.804,0 1.669,-0.196 2.603,-0.611c0.927,-0.413 1.707,-0.96 2.352,-1.636c0.608,-0.637 0.875,-1.292 0.875,-1.981c0,-0.393 -0.135,-0.868 -0.463,-1.425l-10.859,-17.079c-0.144,-0.225 -0.145,-0.513 -0.007,-0.741l10.424,-17.024c0.368,-0.6 0.525,-1.136 0.525,-1.619c0,-0.7 -0.255,-1.344 -0.82,-1.955c-0.595,-0.645 -1.335,-1.153 -2.232,-1.524c-0.912,-0.375 -1.773,-0.555 -2.589,-0.555c-0.581,0 -1.039,0.111 -1.399,0.301c-0.336,0.179 -0.656,0.495 -0.941,1.005l-8.352,14.847c-0.268,0.476 -0.955,0.476 -1.223,0l-8.368,-14.876c-0.245,-0.5 -0.539,-0.803 -0.864,-0.975c-0.355,-0.189 -0.829,-0.303 -1.46,-0.303c-0.817,0 -1.679,0.18 -2.591,0.555c-0.897,0.371 -1.637,0.879 -2.232,1.524c-0.564,0.611 -0.82,1.255 -0.82,1.955c0,0.483 0.157,1.019 0.525,1.619l10.424,17.024c0.139,0.228 0.137,0.516 -0.007,0.741l-10.854,17.08c-0.329,0.557 -0.463,1.032 -0.463,1.425c0,0.689 0.267,1.344 0.873,1.981c0.643,0.673 1.432,1.219 2.38,1.633c0.96,0.42 1.817,0.613 2.577,0.613c0.422,0.001 0.791,-0.07 1.117,-0.203z" fill="#000000" fill-rule="evenodd"></path><path d="M35.04,69.737c-0.127,-0.055 -0.185,-0.203 -0.131,-0.329l0.12,-0.273l2.077,-3.269c0.075,-0.116 0.229,-0.151 0.345,-0.077c0.116,0.075 0.151,0.229 0.077,0.345l-2.061,3.243l-0.099,0.231c-0.053,0.125 -0.201,0.184 -0.328,0.129zM41.633,59.212c-0.116,-0.075 -0.151,-0.229 -0.077,-0.345l4.315,-6.787c0.575,-0.903 0.584,-2.053 0.027,-2.965l-6.728,-10.984c-0.072,-0.117 -0.036,-0.271 0.083,-0.343c0.117,-0.072 0.271,-0.036 0.343,0.083l6.728,10.984c0.659,1.075 0.647,2.431 -0.029,3.493l-4.315,6.787c-0.076,0.116 -0.231,0.15 -0.347,0.077zM37.332,35.129l-1.861,-3.039c-0.096,-0.155 -0.147,-0.271 -0.183,-0.369l-0.023,-0.089l-0.005,-0.1l0.017,-0.113l0.016,-0.056c0.037,-0.095 0.108,-0.2 0.225,-0.325c0.372,-0.401 0.851,-0.743 1.488,-1.005c0.697,-0.288 1.287,-0.397 1.8,-0.397l0.252,0.017c0.137,0.011 0.241,0.131 0.232,0.268c-0.011,0.137 -0.131,0.241 -0.268,0.232l-0.235,-0.016l-0.331,0.019c-0.359,0.039 -0.776,0.14 -1.26,0.34c-0.576,0.236 -0.993,0.537 -1.312,0.883c-0.047,0.051 -0.077,0.091 -0.108,0.137l-0.015,0.049l0.044,0.105c0.021,0.044 0.051,0.096 0.089,0.159l1.861,3.041c0.072,0.117 0.036,0.271 -0.083,0.343c-0.115,0.071 -0.268,0.035 -0.34,-0.084z" fill="#000000" fill-rule="evenodd"></path><path d="M47.224,44.963c-0.068,-0.12 -0.025,-0.272 0.096,-0.34c0.12,-0.068 0.272,-0.025 0.34,0.096c0.533,0.949 1.485,1.424 2.441,1.424c0.955,0 1.907,-0.475 2.441,-1.424l4.972,-8.839c0.068,-0.121 0.22,-0.164 0.34,-0.096c0.121,0.068 0.164,0.22 0.096,0.34l-4.972,8.839c-0.631,1.12 -1.756,1.68 -2.877,1.68c-1.122,0 -2.248,-0.56 -2.877,-1.68zM59.299,33.219c-0.121,-0.068 -0.164,-0.22 -0.096,-0.34l1.7,-3.019l0.056,-0.085c0.04,-0.063 0.107,-0.104 0.181,-0.112l0.261,-0.027c0.507,-0.001 1.096,0.108 1.793,0.396c0.637,0.263 1.117,0.604 1.489,1.007c0.113,0.124 0.185,0.228 0.223,0.323c0.052,0.128 -0.009,0.273 -0.137,0.325c-0.128,0.052 -0.273,-0.009 -0.325,-0.137c-0.008,-0.017 -0.035,-0.071 -0.127,-0.171c-0.321,-0.347 -0.737,-0.648 -1.313,-0.884c-0.485,-0.2 -0.903,-0.301 -1.26,-0.34l-0.329,-0.019l-0.101,0.011l-1.675,2.976c-0.068,0.121 -0.22,0.164 -0.34,0.096z" fill="#000000" fill-rule="evenodd"></path></g></g></svg>